<svg width="600" height="600" viewBox="0 0 600 600" fill="none" xmlns="http://www.w3.org/2000/svg">
<rect width="600" height="600" rx="6" fill="#1646FF"/>
<rect x="240" y="420" width="60" height="60" fill="#E6F0F0"/>
<rect x="295" y="420" width="3" height="60" fill="#6E7379"/>
<rect width="3" height="60" transform="matrix(-1 0 0 1 245 420)" fill="#6E7379"/>
<rect x="265" y="420" width="10" height="60" fill="#6E7379"/>
<rect x="298" y="420" width="2" height="60" fill="#14141E"/>
<rect width="2" height="60" transform="matrix(-1 0 0 1 242 420)" fill="#14141E"/>
<path d="M269 420V425H271V420H269ZM269 435V445H271V435H269ZM269 455V465H271V455H269ZM269 475V480H271V475H269Z" fill="#FAF9FA"/>
<rect x="480" y="300" width="60" height="60" fill="#E6F0F0"/>
<rect x="535" y="300" width="3" height="60" fill="#6E7379"/>
<rect width="3" height="60" transform="matrix(-1 0 0 1 485 300)" fill="#6E7379"/>
<rect x="505" y="300" width="10" height="60" fill="#6E7379"/>
<rect x="538" y="300" width="2" height="60" fill="#14141E"/>
<rect width="2" height="60" transform="matrix(-1 0 0 1 482 300)" fill="#14141E"/>
<path d="M509 300V305H511V300H509ZM509 315V325H511V315H509ZM509 335V345H511V335H509ZM509 355V360H511V355H509Z" fill="#FAF9FA"/>
<rect x="480" y="360" width="60" height="60" fill="#E6F0F0"/>
<rect x="535" y="360" width="3" height="60" fill="#6E7379"/>
<rect width="3" height="60" transform="matrix(-1 0 0 1 485 360)" fill="#6E7379"/>
<rect x="505" y="360" width="10" height="60" fill="#6E7379"/>
<rect x="538" y="360" width="2" height="60" fill="#14141E"/>
<rect width="2" height="60" transform="matrix(-1 0 0 1 482 360)" fill="#14141E"/>
<path d="M509 360V365H511V360H509ZM509 375V385H511V375H509ZM509 395V405H511V395H509ZM509 415V420H511V415H509Z" fill="#FAF9FA"/>
<rect x="480" y="180" width="60" height="60" fill="#E6F0F0"/>
<rect x="535" y="180" width="3" height="60" fill="#6E7379"/>
<rect width="3" height="60" transform="matrix(-1 0 0 1 485 180)" fill="#6E7379"/>
<rect x="505" y="180" width="10" height="60" fill="#6E7379"/>
<rect x="538" y="180" width="2" height="60" fill="#14141E"/>
<rect width="2" height="60" transform="matrix(-1 0 0 1 482 180)" fill="#14141E"/>
<path d="M509 180V185H511V180H509ZM509 195V205H511V195H509ZM509 215V225H511V215H509ZM509 235V240H511V235H509Z" fill="#FAF9FA"/>
<rect x="480" y="240" width="60" height="60" fill="#E6F0F0"/>
<rect x="535" y="240" width="3" height="60" fill="#6E7379"/>
<rect width="3" height="60" transform="matrix(-1 0 0 1 485 240)" fill="#6E7379"/>
<rect x="505" y="240" width="10" height="60" fill="#6E7379"/>
<rect x="538" y="240" width="2" height="60" fill="#14141E"/>
<rect width="2" height="60" transform="matrix(-1 0 0 1 482 240)" fill="#14141E"/>
<path d="M509 240V245H511V240H509ZM509 255V265H511V255H509ZM509 275V285H511V275H509ZM509 295V300H511V295H509Z" fill="#FAF9FA"/>
<rect x="60" y="420" width="60" height="60" transform="rotate(90 60 420)" fill="#E6F0F0"/>
<rect x="60" y="475" width="3" height="60" transform="rotate(90 60 475)" fill="#6E7379"/>
<rect width="3" height="60" transform="matrix(4.37114e-08 -1 -1 -4.37114e-08 60 425)" fill="#6E7379"/>
<rect x="60" y="445" width="10" height="60" transform="rotate(90 60 445)" fill="#6E7379"/>
<rect x="60" y="478" width="2" height="60" transform="rotate(90 60 478)" fill="#14141E"/>
<rect width="2" height="60" transform="matrix(4.37114e-08 -1 -1 -4.37114e-08 60 422)" fill="#14141E"/>
<path d="M60 449L55 449L55 451L60 451L60 449ZM45 449L35 449L35 451L45 451L45 449ZM25 449L15 449L15 451L25 451L25 449ZM5 449L4.37114e-08 449L-4.37114e-08 451L5 451L5 449Z" fill="#FAF9FA"/>
<rect x="180" y="480" width="60" height="60" transform="rotate(90 180 480)" fill="#E6F0F0"/>
<rect x="180" y="535" width="3" height="60" transform="rotate(90 180 535)" fill="#6E7379"/>
<rect width="3" height="60" transform="matrix(4.37114e-08 -1 -1 -4.37114e-08 180 485)" fill="#6E7379"/>
<rect x="180" y="505" width="10" height="60" transform="rotate(90 180 505)" fill="#6E7379"/>
<rect x="180" y="538" width="2" height="60" transform="rotate(90 180 538)" fill="#14141E"/>
<rect width="2" height="60" transform="matrix(4.37114e-08 -1 -1 -4.37114e-08 180 482)" fill="#14141E"/>
<path d="M180 509L175 509L175 511L180 511L180 509ZM165 509L155 509L155 511L165 511L165 509ZM145 509L135 509L135 511L145 511L145 509ZM125 509L120 509L120 511L125 511L125 509Z" fill="#FAF9FA"/>
<rect x="240" y="480" width="60" height="60" transform="rotate(90 240 480)" fill="#E6F0F0"/>
<rect x="240" y="535" width="3" height="60" transform="rotate(90 240 535)" fill="#6E7379"/>
<rect width="3" height="60" transform="matrix(4.37114e-08 -1 -1 -4.37114e-08 240 485)" fill="#6E7379"/>
<rect x="240" y="505" width="10" height="60" transform="rotate(90 240 505)" fill="#6E7379"/>
<rect x="240" y="538" width="2" height="60" transform="rotate(90 240 538)" fill="#14141E"/>
<rect width="2" height="60" transform="matrix(4.37114e-08 -1 -1 -4.37114e-08 240 482)" fill="#14141E"/>
<path d="M240 509L235 509L235 511L240 511L240 509ZM225 509L215 509L215 511L225 511L225 509ZM205 509L195 509L195 511L205 511L205 509ZM185 509L180 509L180 511L185 511L185 509Z" fill="#FAF9FA"/>
<rect x="360" y="360" width="60" height="60" transform="rotate(90 360 360)" fill="#E6F0F0"/>
<rect x="360" y="415" width="3" height="60" transform="rotate(90 360 415)" fill="#6E7379"/>
<rect width="3" height="60" transform="matrix(4.37114e-08 -1 -1 -4.37114e-08 360 365)" fill="#6E7379"/>
<rect x="360" y="385" width="10" height="60" transform="rotate(90 360 385)" fill="#6E7379"/>
<rect x="360" y="418" width="2" height="60" transform="rotate(90 360 418)" fill="#14141E"/>
<rect width="2" height="60" transform="matrix(4.37114e-08 -1 -1 -4.37114e-08 360 362)" fill="#14141E"/>
<path d="M360 389L355 389L355 391L360 391L360 389ZM345 389L335 389L335 391L345 391L345 389ZM325 389L315 389L315 391L325 391L325 389ZM305 389L300 389L300 391L305 391L305 389Z" fill="#FAF9FA"/>
<rect x="480" y="420" width="60" height="60" transform="rotate(90 480 420)" fill="#E6F0F0"/>
<rect x="480" y="475" width="3" height="60" transform="rotate(90 480 475)" fill="#6E7379"/>
<rect width="3" height="60" transform="matrix(4.37114e-08 -1 -1 -4.37114e-08 480 425)" fill="#6E7379"/>
<rect x="480" y="445" width="10" height="60" transform="rotate(90 480 445)" fill="#6E7379"/>
<rect x="480" y="478" width="2" height="60" transform="rotate(90 480 478)" fill="#14141E"/>
<rect width="2" height="60" transform="matrix(4.37114e-08 -1 -1 -4.37114e-08 480 422)" fill="#14141E"/>
<path d="M480 449L475 449L475 451L480 451L480 449ZM465 449L455 449L455 451L465 451L465 449ZM445 449L435 449L435 451L445 451L445 449ZM425 449L420 449L420 451L425 451L425 449Z" fill="#FAF9FA"/>
<rect x="480" y="120" width="60" height="60" transform="rotate(90 480 120)" fill="#E6F0F0"/>
<rect x="480" y="175" width="3" height="60" transform="rotate(90 480 175)" fill="#6E7379"/>
<rect width="3" height="60" transform="matrix(4.37114e-08 -1 -1 -4.37114e-08 480 125)" fill="#6E7379"/>
<rect x="480" y="145" width="10" height="60" transform="rotate(90 480 145)" fill="#6E7379"/>
<rect x="480" y="178" width="2" height="60" transform="rotate(90 480 178)" fill="#14141E"/>
<rect width="2" height="60" transform="matrix(4.37114e-08 -1 -1 -4.37114e-08 480 122)" fill="#14141E"/>
<path d="M480 149L475 149L475 151L480 151L480 149ZM465 149L455 149L455 151L465 151L465 149ZM445 149L435 149L435 151L445 151L445 149ZM425 149L420 149L420 151L425 151L425 149Z" fill="#FAF9FA"/>
<rect x="420" y="120" width="60" height="60" transform="rotate(90 420 120)" fill="#E6F0F0"/>
<rect x="420" y="175" width="3" height="60" transform="rotate(90 420 175)" fill="#6E7379"/>
<rect width="3" height="60" transform="matrix(4.37114e-08 -1 -1 -4.37114e-08 420 125)" fill="#6E7379"/>
<rect x="420" y="145" width="10" height="60" transform="rotate(90 420 145)" fill="#6E7379"/>
<rect x="420" y="178" width="2" height="60" transform="rotate(90 420 178)" fill="#14141E"/>
<rect width="2" height="60" transform="matrix(4.37114e-08 -1 -1 -4.37114e-08 420 122)" fill="#14141E"/>
<path d="M420 149L415 149L415 151L420 151L420 149ZM405 149L395 149L395 151L405 151L405 149ZM385 149L375 149L375 151L385 151L385 149ZM365 149L360 149L360 151L365 151L365 149Z" fill="#FAF9FA"/>
<rect x="300" y="180" width="60" height="60" transform="rotate(90 300 180)" fill="#E6F0F0"/>
<rect x="300" y="235" width="3" height="60" transform="rotate(90 300 235)" fill="#6E7379"/>
<rect width="3" height="60" transform="matrix(4.37114e-08 -1 -1 -4.37114e-08 300 185)" fill="#6E7379"/>
<rect x="300" y="205" width="10" height="60" transform="rotate(90 300 205)" fill="#6E7379"/>
<rect x="300" y="238" width="2" height="60" transform="rotate(90 300 238)" fill="#14141E"/>
<rect width="2" height="60" transform="matrix(4.37114e-08 -1 -1 -4.37114e-08 300 182)" fill="#14141E"/>
<path d="M300 209L295 209L295 211L300 211L300 209ZM285 209L275 209L275 211L285 211L285 209ZM265 209L255 209L255 211L265 211L265 209ZM245 209L240 209L240 211L245 211L245 209Z" fill="#FAF9FA"/>
<rect x="60" y="60" width="60" height="60" transform="rotate(90 60 60)" fill="#E6F0F0"/>
<rect x="60" y="115" width="3" height="60" transform="rotate(90 60 115)" fill="#6E7379"/>
<rect width="3" height="60" transform="matrix(4.37114e-08 -1 -1 -4.37114e-08 60 65)" fill="#6E7379"/>
<rect x="60" y="85" width="10" height="60" transform="rotate(90 60 85)" fill="#6E7379"/>
<rect x="60" y="118" width="2" height="60" transform="rotate(90 60 118)" fill="#14141E"/>
<rect width="2" height="60" transform="matrix(4.37114e-08 -1 -1 -4.37114e-08 60 62)" fill="#14141E"/>
<path d="M60 89L55 89L55 91L60 91L60 89ZM45 89L35 89L35 91L45 91L45 89ZM25 89L15 89L15 91L25 91L25 89ZM5 89L4.37114e-08 89L-4.37114e-08 91L5 91L5 89Z" fill="#FAF9FA"/>
<rect x="120" y="60" width="60" height="60" transform="rotate(90 120 60)" fill="#E6F0F0"/>
<rect x="120" y="115" width="3" height="60" transform="rotate(90 120 115)" fill="#6E7379"/>
<rect width="3" height="60" transform="matrix(4.37114e-08 -1 -1 -4.37114e-08 120 65)" fill="#6E7379"/>
<rect x="120" y="85" width="10" height="60" transform="rotate(90 120 85)" fill="#6E7379"/>
<rect x="120" y="118" width="2" height="60" transform="rotate(90 120 118)" fill="#14141E"/>
<rect width="2" height="60" transform="matrix(4.37114e-08 -1 -1 -4.37114e-08 120 62)" fill="#14141E"/>
<path d="M120 89L115 89L115 91L120 91L120 89ZM105 89L95 89L95 91L105 91L105 89ZM85 89L75 89L75 91L85 91L85 89ZM65 89L60 89L60 91L65 91L65 89Z" fill="#FAF9FA"/>
<path d="M300 360V420H240C240 420 240 406.569 240 390C240 373.431 253.431 360 270 360C286.569 360 300 360 300 360Z" fill="#E6F0F0"/>
<path d="M276 385H300V395H277C275.895 395 275 395.896 275 397V420H265V396C265 388.5 269 385 276 385Z" fill="#6E7379"/>
<path fill-rule="evenodd" clip-rule="evenodd" d="M295 365V365H270C256.193 365 245 376.193 245 390V407V415V420H240V390C240 373.431 253.431 360 270 360H300V365H295Z" fill="#6E7379"/>
<path fill-rule="evenodd" clip-rule="evenodd" d="M298 362V362H270C254.536 362 242 374.536 242 390V403V418V420H240V390C240 373.431 253.431 360 270 360H300V362H298Z" fill="#14141E"/>
<path d="M271 420V414H269V420H271ZM271 402V396H269V402H271ZM271 396C271 395.321 271.135 394.675 271.379 394.087L269.532 393.321C269.189 394.147 269 395.053 269 396H271ZM274.086 391.379C274.674 391.136 275.32 391 276 391V389C275.053 389 274.147 389.189 273.32 389.532L274.086 391.379ZM276 391H282V389H276V391ZM294 391H300V389H294V391Z" fill="#FAF9FA"/>
<path d="M295 418C295 416.343 296.343 415 298 415H300V420H295V418Z" fill="#6E7379"/>
<path d="M298 419C298 418.448 298.448 418 299 418H300V420H298V419Z" fill="#14141E"/>
<path d="M360 120V180H300C300 180 300 166.569 300 150C300 133.431 313.431 120 330 120C346.569 120 360 120 360 120Z" fill="#E6F0F0"/>
<path d="M336 145H360V155H337C335.895 155 335 155.896 335 157V180H325V156C325 148.5 329 145 336 145Z" fill="#6E7379"/>
<path fill-rule="evenodd" clip-rule="evenodd" d="M355 125V125H330C316.193 125 305 136.193 305 150V167V175V180H300V150C300 133.431 313.431 120 330 120H360V125H355Z" fill="#6E7379"/>
<path fill-rule="evenodd" clip-rule="evenodd" d="M358 122V122H330C314.536 122 302 134.536 302 150V163V178V180H300V150C300 133.431 313.431 120 330 120H360V122H358Z" fill="#14141E"/>
<path d="M331 180V174H329V180H331ZM331 162V156H329V162H331ZM331 156C331 155.321 331.135 154.675 331.379 154.087L329.532 153.321C329.189 154.147 329 155.053 329 156H331ZM334.086 151.379C334.674 151.136 335.32 151 336 151V149C335.053 149 334.147 149.189 333.32 149.532L334.086 151.379ZM336 151H342V149H336V151ZM354 151H360V149H354V151Z" fill="#FAF9FA"/>
<path d="M355 178C355 176.343 356.343 175 358 175H360V180H355V178Z" fill="#6E7379"/>
<path d="M358 179C358 178.448 358.448 178 359 178H360V180H358V179Z" fill="#14141E"/>
<path d="M60 420V480H120C120 480 120 466.569 120 450C120 433.431 106.569 420 90 420C73.4315 420 60 420 60 420Z" fill="#E6F0F0"/>
<path d="M84 445H60V455H83C84.1046 455 85 455.896 85 457V480H95V456C95 448.5 91 445 84 445Z" fill="#6E7379"/>
<path fill-rule="evenodd" clip-rule="evenodd" d="M65 425V425H90C103.807 425 115 436.193 115 450V467V475V480H120V450C120 433.431 106.569 420 90 420H60V425H65Z" fill="#6E7379"/>
<path fill-rule="evenodd" clip-rule="evenodd" d="M62 422V422H90C105.464 422 118 434.536 118 450V463V478V480H120V450C120 433.431 106.569 420 90 420H60V422H62Z" fill="#14141E"/>
<path d="M89 480V474H91V480H89ZM89 462V456H91V462H89ZM89 456C89 455.321 88.8649 454.675 88.621 454.087L90.4684 453.321C90.8113 454.147 91 455.053 91 456H89ZM85.9137 451.379C85.3255 451.136 84.6798 451 84 451V449C84.9473 449 85.853 449.189 86.6798 449.532L85.9137 451.379ZM84 451H78V449H84V451ZM66 451H60V449H66V451Z" fill="#FAF9FA"/>
<path d="M65 478C65 476.343 63.6569 475 62 475H60V480H65V478Z" fill="#6E7379"/>
<path d="M62 479C62 478.448 61.5523 478 61 478H60V480H62V479Z" fill="#14141E"/>
<path d="M360 360V420H420C420 420 420 406.569 420 390C420 373.431 406.569 360 390 360C373.431 360 360 360 360 360Z" fill="#E6F0F0"/>
<path d="M384 385H360V395H383C384.105 395 385 395.896 385 397V420H395V396C395 388.5 391 385 384 385Z" fill="#6E7379"/>
<path fill-rule="evenodd" clip-rule="evenodd" d="M365 365V365H390C403.807 365 415 376.193 415 390V407V415V420H420V390C420 373.431 406.569 360 390 360H360V365H365Z" fill="#6E7379"/>
<path fill-rule="evenodd" clip-rule="evenodd" d="M362 362V362H390C405.464 362 418 374.536 418 390V403V418V420H420V390C420 373.431 406.569 360 390 360H360V362H362Z" fill="#14141E"/>
<path d="M389 420V414H391V420H389ZM389 402V396H391V402H389ZM389 396C389 395.321 388.865 394.675 388.621 394.087L390.468 393.321C390.811 394.147 391 395.053 391 396H389ZM385.914 391.379C385.326 391.136 384.68 391 384 391V389C384.947 389 385.853 389.189 386.68 389.532L385.914 391.379ZM384 391H378V389H384V391ZM366 391H360V389H366V391Z" fill="#FAF9FA"/>
<path d="M365 418C365 416.343 363.657 415 362 415H360V420H365V418Z" fill="#6E7379"/>
<path d="M362 419C362 418.448 361.552 418 361 418H360V420H362V419Z" fill="#14141E"/>
<path d="M180 120V180H240C240 180 240 166.569 240 150C240 133.431 226.569 120 210 120C193.431 120 180 120 180 120Z" fill="#E6F0F0"/>
<path d="M204 145H180V155H203C204.105 155 205 155.896 205 157V180H215V156C215 148.5 211 145 204 145Z" fill="#6E7379"/>
<path fill-rule="evenodd" clip-rule="evenodd" d="M185 125V125H210C223.807 125 235 136.193 235 150V167V175V180H240V150C240 133.431 226.569 120 210 120H180V125H185Z" fill="#6E7379"/>
<path fill-rule="evenodd" clip-rule="evenodd" d="M182 122V122H210C225.464 122 238 134.536 238 150V163V178V180H240V150C240 133.431 226.569 120 210 120H180V122H182Z" fill="#14141E"/>
<path d="M209 180V174H211V180H209ZM209 162V156H211V162H209ZM209 156C209 155.321 208.865 154.675 208.621 154.087L210.468 153.321C210.811 154.147 211 155.053 211 156H209ZM205.914 151.379C205.326 151.136 204.68 151 204 151V149C204.947 149 205.853 149.189 206.68 149.532L205.914 151.379ZM204 151H198V149H204V151ZM186 151H180V149H186V151Z" fill="#FAF9FA"/>
<path d="M185 178C185 176.343 183.657 175 182 175H180V180H185V178Z" fill="#6E7379"/>
<path d="M182 179C182 178.448 181.552 178 181 178H180V180H182V179Z" fill="#14141E"/>
<path d="M480 120V180H540C540 180 540 166.569 540 150C540 133.431 526.569 120 510 120C493.431 120 480 120 480 120Z" fill="#E6F0F0"/>
<path d="M504 145H480V155H503C504.105 155 505 155.896 505 157V180H515V156C515 148.5 511 145 504 145Z" fill="#6E7379"/>
<path fill-rule="evenodd" clip-rule="evenodd" d="M485 125V125H510C523.807 125 535 136.193 535 150V167V175V180H540V150C540 133.431 526.569 120 510 120H480V125H485Z" fill="#6E7379"/>
<path fill-rule="evenodd" clip-rule="evenodd" d="M482 122V122H510C525.464 122 538 134.536 538 150V163V178V180H540V150C540 133.431 526.569 120 510 120H480V122H482Z" fill="#14141E"/>
<path d="M509 180V174H511V180H509ZM509 162V156H511V162H509ZM509 156C509 155.321 508.865 154.675 508.621 154.087L510.468 153.321C510.811 154.147 511 155.053 511 156H509ZM505.914 151.379C505.326 151.136 504.68 151 504 151V149C504.947 149 505.853 149.189 506.68 149.532L505.914 151.379ZM504 151H498V149H504V151ZM486 151H480V149H486V151Z" fill="#FAF9FA"/>
<path d="M485 178C485 176.343 483.657 175 482 175H480V180H485V178Z" fill="#6E7379"/>
<path d="M482 179C482 178.448 481.552 178 481 178H480V180H482V179Z" fill="#14141E"/>
<path d="M120 60V120H180C180 120 180 106.569 180 90C180 73.4315 166.569 60 150 60C133.431 60 120 60 120 60Z" fill="#E6F0F0"/>
<path d="M144 85.0005H120V95.0005H143C144.105 95.0005 145 95.8959 145 97.0005V120H155V96.0005C155 88.5005 151 85.0005 144 85.0005Z" fill="#6E7379"/>
<path fill-rule="evenodd" clip-rule="evenodd" d="M125 65.0005V65H150C163.807 65 175 76.1929 175 90V107V115V120H180V90C180 73.4315 166.569 60 150 60H120V65.0005H125Z" fill="#6E7379"/>
<path fill-rule="evenodd" clip-rule="evenodd" d="M122 62.0005V62H150C165.464 62 178 74.536 178 90V103V118V120H180V90C180 73.4315 166.569 60 150 60H120V62.0005H122Z" fill="#14141E"/>
<path d="M149 120V114H151V120H149ZM149 102V96.0005H151V102H149ZM149 96.0005C149 95.3207 148.865 94.675 148.621 94.0868L150.468 93.3207C150.811 94.1474 151 95.0532 151 96.0005H149ZM145.914 91.3795C145.326 91.1356 144.68 91.0005 144 91.0005V89.0005C144.947 89.0005 145.853 89.1892 146.68 89.532L145.914 91.3795ZM144 91.0005H138V89.0005H144V91.0005ZM126 91.0005H120V89.0005H126V91.0005Z" fill="#FAF9FA"/>
<path d="M125 118C125 116.343 123.657 115 122 115H120V120H125V118Z" fill="#6E7379"/>
<path d="M122 119C122 118.448 121.552 118 121 118H120V120H122V119Z" fill="#14141E"/>
<path d="M240 540V480H300C300 480 300 493.432 300 510C300 526.569 286.569 540 270 540C253.431 540 240 540 240 540Z" fill="#E6F0F0"/>
<path d="M264 515H240V505H263C264.105 505 265 504.105 265 503V480H275V504C275 511.5 271 515 264 515Z" fill="#6E7379"/>
<path fill-rule="evenodd" clip-rule="evenodd" d="M245 535V535H270C283.807 535 295 523.808 295 510V493V485V480H300V510C300 526.569 286.569 540 270 540H240V535H245Z" fill="#6E7379"/>
<path fill-rule="evenodd" clip-rule="evenodd" d="M242 538V538H270C285.464 538 298 525.464 298 510V497V482V480H300V510C300 526.569 286.569 540 270 540H240V538H242Z" fill="#14141E"/>
<path d="M269 480V486H271V480H269ZM269 498V504H271V498H269ZM269 504C269 504.68 268.865 505.326 268.621 505.914L270.468 506.68C270.811 505.853 271 504.947 271 504H269ZM265.914 508.621C265.326 508.865 264.68 509 264 509V511C264.947 511 265.853 510.811 266.68 510.468L265.914 508.621ZM264 509H258V511H264V509ZM246 509H240V511H246V509Z" fill="#FAF9FA"/>
<path d="M245 482C245 483.657 243.657 485 242 485H240V480H245V482Z" fill="#6E7379"/>
<path d="M242 481C242 481.553 241.552 482 241 482H240V480H242V481Z" fill="#14141E"/>
<path d="M480 480V420H540C540 420 540 433.432 540 450C540 466.569 526.569 480 510 480C493.431 480 480 480 480 480Z" fill="#E6F0F0"/>
<path d="M504 455H480V445H503C504.105 445 505 444.105 505 443V420H515V444C515 451.5 511 455 504 455Z" fill="#6E7379"/>
<path fill-rule="evenodd" clip-rule="evenodd" d="M485 475V475H510C523.807 475 535 463.808 535 450V433V425V420H540V450C540 466.569 526.569 480 510 480H480V475H485Z" fill="#6E7379"/>
<path fill-rule="evenodd" clip-rule="evenodd" d="M482 478V478H510C525.464 478 538 465.464 538 450V437V422V420H540V450C540 466.569 526.569 480 510 480H480V478H482Z" fill="#14141E"/>
<path d="M509 420V426H511V420H509ZM509 438V444H511V438H509ZM509 444C509 444.68 508.865 445.326 508.621 445.914L510.468 446.68C510.811 445.853 511 444.947 511 444H509ZM505.914 448.621C505.326 448.865 504.68 449 504 449V451C504.947 451 505.853 450.811 506.68 450.468L505.914 448.621ZM504 449H498V451H504V449ZM486 449H480V451H486V449Z" fill="#FAF9FA"/>
<path d="M485 422C485 423.657 483.657 425 482 425H480V420H485V422Z" fill="#6E7379"/>
<path d="M482 421C482 421.553 481.552 422 481 422H480V420H482V421Z" fill="#14141E"/>
<path d="M300 240V180H360C360 180 360 193.432 360 210C360 226.569 346.569 240 330 240C313.431 240 300 240 300 240Z" fill="#E6F0F0"/>
<path d="M324 215H300V205H323C324.105 205 325 204.105 325 203V180H335V204C335 211.5 331 215 324 215Z" fill="#6E7379"/>
<path fill-rule="evenodd" clip-rule="evenodd" d="M305 235V235H330C343.807 235 355 223.808 355 210V193V185V180H360V210C360 226.569 346.569 240 330 240H300V235H305Z" fill="#6E7379"/>
<path fill-rule="evenodd" clip-rule="evenodd" d="M302 238V238H330C345.464 238 358 225.464 358 210V197V182V180H360V210C360 226.569 346.569 240 330 240H300V238H302Z" fill="#14141E"/>
<path d="M329 180V186H331V180H329ZM329 198V204H331V198H329ZM329 204C329 204.68 328.865 205.326 328.621 205.914L330.468 206.68C330.811 205.853 331 204.947 331 204H329ZM325.914 208.621C325.326 208.865 324.68 209 324 209V211C324.947 211 325.853 210.811 326.68 210.468L325.914 208.621ZM324 209H318V211H324V209ZM306 209H300V211H306V209Z" fill="#FAF9FA"/>
<path d="M305 182C305 183.657 303.657 185 302 185H300V180H305V182Z" fill="#6E7379"/>
<path d="M302 181C302 181.553 301.552 182 301 182H300V180H302V181Z" fill="#14141E"/>
<path d="M120 540V480H60C60 480 60 493.432 60 510C60 526.569 73.4314 540 90 540C106.569 540 120 540 120 540Z" fill="#E6F0F0"/>
<path d="M96 515H120V505H97C95.8954 505 95 504.105 95 503V480H85V504C85 511.5 89 515 96 515Z" fill="#6E7379"/>
<path fill-rule="evenodd" clip-rule="evenodd" d="M115 535V535H90C76.1929 535 65 523.808 65 510V493V485V480H60V510C60 526.569 73.4314 540 90 540H120V535H115Z" fill="#6E7379"/>
<path fill-rule="evenodd" clip-rule="evenodd" d="M118 538V538H90C74.536 538 62 525.464 62 510V497V482V480H60V510C60 526.569 73.4314 540 90 540H120V538H118Z" fill="#14141E"/>
<path d="M91 480V486H89V480H91ZM91 498V504H89V498H91ZM91 504C91 504.68 91.1351 505.326 91.379 505.914L89.5316 506.68C89.1887 505.853 89 504.947 89 504H91ZM94.0863 508.621C94.6745 508.865 95.3202 509 96 509V511C95.0527 511 94.147 510.811 93.3202 510.468L94.0863 508.621ZM96 509H102V511H96V509ZM114 509H120V511H114V509Z" fill="#FAF9FA"/>
<path d="M115 482C115 483.657 116.343 485 118 485H120V480H115V482Z" fill="#6E7379"/>
<path d="M118 481C118 481.553 118.448 482 119 482H120V480H118V481Z" fill="#14141E"/>
<path d="M420 480V420H360C360 420 360 433.432 360 450C360 466.569 373.431 480 390 480C406.569 480 420 480 420 480Z" fill="#E6F0F0"/>
<path d="M396 455H420V445H397C395.895 445 395 444.105 395 443V420H385V444C385 451.5 389 455 396 455Z" fill="#6E7379"/>
<path fill-rule="evenodd" clip-rule="evenodd" d="M415 475V475H390C376.193 475 365 463.808 365 450V433V425V420H360V450C360 466.569 373.431 480 390 480H420V475H415Z" fill="#6E7379"/>
<path fill-rule="evenodd" clip-rule="evenodd" d="M418 478V478H390C374.536 478 362 465.464 362 450V437V422V420H360V450C360 466.569 373.431 480 390 480H420V478H418Z" fill="#14141E"/>
<path d="M391 420V426H389V420H391ZM391 438V444H389V438H391ZM391 444C391 444.68 391.135 445.326 391.379 445.914L389.532 446.68C389.189 445.853 389 444.947 389 444H391ZM394.086 448.621C394.674 448.865 395.32 449 396 449V451C395.053 451 394.147 450.811 393.32 450.468L394.086 448.621ZM396 449H402V451H396V449ZM414 449H420V451H414V449Z" fill="#FAF9FA"/>
<path d="M415 422C415 423.657 416.343 425 418 425H420V420H415V422Z" fill="#6E7379"/>
<path d="M418 421C418 421.553 418.448 422 419 422H420V420H418V421Z" fill="#14141E"/>
<path d="M240 240V180H180C180 180 180 193.432 180 210C180 226.569 193.431 240 210 240C226.569 240 240 240 240 240Z" fill="#E6F0F0"/>
<path d="M216 215H240V205H217C215.895 205 215 204.105 215 203V180H205V204C205 211.5 209 215 216 215Z" fill="#6E7379"/>
<path fill-rule="evenodd" clip-rule="evenodd" d="M235 235V235H210C196.193 235 185 223.808 185 210V193V185V180H180V210C180 226.569 193.431 240 210 240H240V235H235Z" fill="#6E7379"/>
<path fill-rule="evenodd" clip-rule="evenodd" d="M238 238V238H210C194.536 238 182 225.464 182 210V197V182V180H180V210C180 226.569 193.431 240 210 240H240V238H238Z" fill="#14141E"/>
<path d="M211 180V186H209V180H211ZM211 198V204H209V198H211ZM211 204C211 204.68 211.135 205.326 211.379 205.914L209.532 206.68C209.189 205.853 209 204.947 209 204H211ZM214.086 208.621C214.674 208.865 215.32 209 216 209V211C215.053 211 214.147 210.811 213.32 210.468L214.086 208.621ZM216 209H222V211H216V209ZM234 209H240V211H234V209Z" fill="#FAF9FA"/>
<path d="M235 182C235 183.657 236.343 185 238 185H240V180H235V182Z" fill="#6E7379"/>
<path d="M238 181C238 181.553 238.448 182 239 182H240V180H238V181Z" fill="#14141E"/>
<rect x="39" y="65" width="20" height="50" fill="#C4C4C4"/>
<rect x="39" y="65" width="5" height="5" fill="#14141E"/>
<rect width="5" height="5" transform="matrix(-1 0 0 1 59 70)" fill="#14141E"/>
<rect x="49" y="65" width="5" height="5" fill="#14141E"/>
<rect width="5" height="5" transform="matrix(-1 0 0 1 49 70)" fill="#14141E"/>
<rect x="44" y="65" width="5" height="5" fill="#FAF9FA"/>
<rect width="5" height="5" transform="matrix(-1 0 0 1 54 70)" fill="#FAF9FA"/>
<rect x="54" y="65" width="5" height="5" fill="#FAF9FA"/>
<rect width="5" height="5" transform="matrix(-1 0 0 1 44 70)" fill="#FAF9FA"/>
<rect x="39" y="75" width="5" height="5" fill="#14141E"/>
<rect x="39" y="85" width="5" height="5" fill="#14141E"/>
<rect x="39" y="95" width="5" height="5" fill="#14141E"/>
<rect x="39" y="105" width="5" height="5" fill="#14141E"/>
<rect width="5" height="5" transform="matrix(-1 0 0 1 59 80)" fill="#14141E"/>
<rect width="5" height="5" transform="matrix(-1 0 0 1 59 90)" fill="#14141E"/>
<rect width="5" height="5" transform="matrix(-1 0 0 1 59 100)" fill="#14141E"/>
<rect width="5" height="5" transform="matrix(-1 0 0 1 59 110)" fill="#14141E"/>
<rect x="49" y="75" width="5" height="5" fill="#14141E"/>
<rect x="49" y="85" width="5" height="5" fill="#14141E"/>
<rect x="49" y="95" width="5" height="5" fill="#14141E"/>
<rect x="49" y="105" width="5" height="5" fill="#14141E"/>
<rect width="5" height="5" transform="matrix(-1 0 0 1 49 80)" fill="#14141E"/>
<rect width="5" height="5" transform="matrix(-1 0 0 1 49 90)" fill="#14141E"/>
<rect width="5" height="5" transform="matrix(-1 0 0 1 49 100)" fill="#14141E"/>
<rect width="5" height="5" transform="matrix(-1 0 0 1 49 110)" fill="#14141E"/>
<rect x="44" y="75" width="5" height="5" fill="#FAF9FA"/>
<rect x="44" y="85" width="5" height="5" fill="#FAF9FA"/>
<rect x="44" y="95" width="5" height="5" fill="#FAF9FA"/>
<rect x="44" y="105" width="5" height="5" fill="#FAF9FA"/>
<rect width="5" height="5" transform="matrix(-1 0 0 1 54 80)" fill="#FAF9FA"/>
<rect width="5" height="5" transform="matrix(-1 0 0 1 54 90)" fill="#FAF9FA"/>
<rect width="5" height="5" transform="matrix(-1 0 0 1 54 100)" fill="#FAF9FA"/>
<rect width="5" height="5" transform="matrix(-1 0 0 1 54 110)" fill="#FAF9FA"/>
<rect x="54" y="75" width="5" height="5" fill="#FAF9FA"/>
<rect x="54" y="85" width="5" height="5" fill="#FAF9FA"/>
<rect x="54" y="95" width="5" height="5" fill="#FAF9FA"/>
<rect x="54" y="105" width="5" height="5" fill="#FAF9FA"/>
<rect width="5" height="5" transform="matrix(-1 0 0 1 44 80)" fill="#FAF9FA"/>
<rect width="5" height="5" transform="matrix(-1 0 0 1 44 90)" fill="#FAF9FA"/>
<rect width="5" height="5" transform="matrix(-1 0 0 1 44 100)" fill="#FAF9FA"/>
<rect width="5" height="5" transform="matrix(-1 0 0 1 44 110)" fill="#FAF9FA"/>
<path d="M180 180V120H120C120 120 120 133.432 120 150C120 166.569 133.431 180 150 180C166.569 180 180 180 180 180Z" fill="#E6F0F0"/>
<path d="M156 155H180V145H157C155.895 145 155 144.105 155 143V120H145V144C145 151.5 149 155 156 155Z" fill="#6E7379"/>
<path fill-rule="evenodd" clip-rule="evenodd" d="M175 175V175H150C136.193 175 125 163.808 125 150V133V125V120H120V150C120 166.569 133.431 180 150 180H180V175H175Z" fill="#6E7379"/>
<path fill-rule="evenodd" clip-rule="evenodd" d="M178 178V178H150C134.536 178 122 165.464 122 150V137V122V120H120V150C120 166.569 133.431 180 150 180H180V178H178Z" fill="#14141E"/>
<path d="M151 120V126H149V120H151ZM151 138V144H149V138H151ZM151 144C151 144.68 151.135 145.326 151.379 145.914L149.532 146.68C149.189 145.853 149 144.947 149 144H151ZM154.086 148.621C154.674 148.865 155.32 149 156 149V151C155.053 151 154.147 150.811 153.32 150.468L154.086 148.621ZM156 149H162V151H156V149ZM174 149H180V151H174V149Z" fill="#FAF9FA"/>
<path d="M175 122C175 123.657 176.343 125 178 125H180V120H175V122Z" fill="#6E7379"/>
<path d="M178 121C178 121.553 178.448 122 179 122H180V120H178V121Z" fill="#14141E"/>
<rect x="40" y="425" width="20" height="50" fill="#C4C4C4"/>
<rect x="40" y="425" width="5" height="5" fill="#14141E"/>
<rect width="5" height="5" transform="matrix(-1 0 0 1 60 430)" fill="#14141E"/>
<rect x="50" y="425" width="5" height="5" fill="#14141E"/>
<rect width="5" height="5" transform="matrix(-1 0 0 1 50 430)" fill="#14141E"/>
<rect x="45" y="425" width="5" height="5" fill="#FAF9FA"/>
<rect width="5" height="5" transform="matrix(-1 0 0 1 55 430)" fill="#FAF9FA"/>
<rect x="55" y="425" width="5" height="5" fill="#FAF9FA"/>
<rect width="5" height="5" transform="matrix(-1 0 0 1 45 430)" fill="#FAF9FA"/>
<rect x="40" y="435" width="5" height="5" fill="#14141E"/>
<rect x="40" y="445" width="5" height="5" fill="#14141E"/>
<rect x="40" y="455" width="5" height="5" fill="#14141E"/>
<rect x="40" y="465" width="5" height="5" fill="#14141E"/>
<rect width="5" height="5" transform="matrix(-1 0 0 1 60 440)" fill="#14141E"/>
<rect width="5" height="5" transform="matrix(-1 0 0 1 60 450)" fill="#14141E"/>
<rect width="5" height="5" transform="matrix(-1 0 0 1 60 460)" fill="#14141E"/>
<rect width="5" height="5" transform="matrix(-1 0 0 1 60 470)" fill="#14141E"/>
<rect x="50" y="435" width="5" height="5" fill="#14141E"/>
<rect x="50" y="445" width="5" height="5" fill="#14141E"/>
<rect x="50" y="455" width="5" height="5" fill="#14141E"/>
<rect x="50" y="465" width="5" height="5" fill="#14141E"/>
<rect width="5" height="5" transform="matrix(-1 0 0 1 50 440)" fill="#14141E"/>
<rect width="5" height="5" transform="matrix(-1 0 0 1 50 450)" fill="#14141E"/>
<rect width="5" height="5" transform="matrix(-1 0 0 1 50 460)" fill="#14141E"/>
<rect width="5" height="5" transform="matrix(-1 0 0 1 50 470)" fill="#14141E"/>
<rect x="45" y="435" width="5" height="5" fill="#FAF9FA"/>
<rect x="45" y="445" width="5" height="5" fill="#FAF9FA"/>
<rect x="45" y="455" width="5" height="5" fill="#FAF9FA"/>
<rect x="45" y="465" width="5" height="5" fill="#FAF9FA"/>
<rect width="5" height="5" transform="matrix(-1 0 0 1 55 440)" fill="#FAF9FA"/>
<rect width="5" height="5" transform="matrix(-1 0 0 1 55 450)" fill="#FAF9FA"/>
<rect width="5" height="5" transform="matrix(-1 0 0 1 55 460)" fill="#FAF9FA"/>
<rect width="5" height="5" transform="matrix(-1 0 0 1 55 470)" fill="#FAF9FA"/>
<rect x="55" y="435" width="5" height="5" fill="#FAF9FA"/>
<rect x="55" y="445" width="5" height="5" fill="#FAF9FA"/>
<rect x="55" y="455" width="5" height="5" fill="#FAF9FA"/>
<rect x="55" y="465" width="5" height="5" fill="#FAF9FA"/>
<rect width="5" height="5" transform="matrix(-1 0 0 1 45 440)" fill="#FAF9FA"/>
<rect width="5" height="5" transform="matrix(-1 0 0 1 45 450)" fill="#FAF9FA"/>
<rect width="5" height="5" transform="matrix(-1 0 0 1 45 460)" fill="#FAF9FA"/>
<rect width="5" height="5" transform="matrix(-1 0 0 1 45 470)" fill="#FAF9FA"/>
<path d="M570 90L582 78L582 165L570 153L570 90Z" fill="#1442F3"/>
<path d="M570 90L558 78L582 78L570 90Z" fill="#4168FF"/>
<path d="M570 153L582 165L558 165L570 153Z" fill="#062DC2"/>
<path d="M570 90L558 78L558 165L570 153L570 90Z" fill="#2955FF"/>
<path d="M202 30L214 18L214 102L202 90L202 30Z" fill="#1442F3"/>
<path d="M202 30L190 18L214 18L202 30Z" fill="#4168FF"/>
<path d="M202 90L214 102L190 102L202 90Z" fill="#062DC2"/>
<path d="M202 30L190 18L190 102L202 90L202 30Z" fill="#2955FF"/>
<path d="M270 90L282 78L282 162L270 150L270 90Z" fill="#1442F3"/>
<path d="M270 90L258 78L282 78L270 90Z" fill="#4168FF"/>
<path d="M270 150L282 162L258 162L270 150Z" fill="#062DC2"/>
<path d="M270 90L258 78L258 162L270 150L270 90Z" fill="#2955FF"/>
<path d="M330 510L342 498L342 582L330 570L330 510Z" fill="#1442F3"/>
<path d="M330 510L318 498L342 498L330 510Z" fill="#4168FF"/>
<path d="M330 570L342 582L318 582L330 570Z" fill="#062DC2"/>
<path d="M330 510L318 498L318 582L330 570L330 510Z" fill="#2955FF"/>
<path d="M210 387L222 375L222 462L210 450L210 387Z" fill="#1442F3"/>
<path d="M210 387L198 375L222 375L210 387Z" fill="#4168FF"/>
<path d="M210 450L222 462L198 462L210 450Z" fill="#062DC2"/>
<path d="M210 387L198 375L198 462L210 450L210 387Z" fill="#2955FF"/>
<path d="M450 327L462 315L462 402L450 390L450 327Z" fill="#1442F3"/>
<path d="M450 327L438 315L462 315L450 327Z" fill="#4168FF"/>
<path d="M450 390L462 402L438 402L450 390Z" fill="#062DC2"/>
<path d="M450 327L438 315L438 402L450 390L450 327Z" fill="#2955FF"/>
<path d="M312 90L300 78H384L372 90H312Z" fill="#4168FF"/>
<path d="M312 90L300 102L300 78L312 90Z" fill="#2955FF"/>
<path d="M372 90L384 78L384 102L372 90Z" fill="#1442F3"/>
<path d="M312 90L300 102H384L372 90H312Z" fill="#062DC2"/>
<path d="M498 90L486 78H540L528 90H498Z" fill="#4168FF"/>
<path d="M498 90L486 102L486 78L498 90Z" fill="#2955FF"/>
<path d="M528 90L540 78L540 102L528 90Z" fill="#1442F3"/>
<path d="M498 90L486 102H540L528 90H498Z" fill="#062DC2"/>
<path d="M100 30L88 18H172L160 30H100Z" fill="#4168FF"/>
<path d="M100 30L88 42L88 18L100 30Z" fill="#2955FF"/>
<path d="M160 30L172 18L172 42L160 30Z" fill="#1442F3"/>
<path d="M100 30L88 42H172L160 30H100Z" fill="#062DC2"/>
<path d="M330 450L318 438H342L330 450Z" fill="#4168FF"/>
<path d="M330 450L318 462L318 438L330 450Z" fill="#2955FF"/>
<path d="M330 450L342 438L342 462L330 450Z" fill="#1442F3"/>
<path d="M330 450L318 462H342L330 450Z" fill="#062DC2"/>
<path d="M192 270L180 258H264L252 270H192Z" fill="#4168FF"/>
<path d="M192 270L180 282L180 258L192 270Z" fill="#2955FF"/>
<path d="M252 270L264 258L264 282L252 270Z" fill="#1442F3"/>
<path d="M192 270L180 282H264L252 270H192Z" fill="#062DC2"/>
<path d="M291 270L279 258H363L351 270H291Z" fill="#4168FF"/>
<path d="M291 270L279 282L279 258L291 270Z" fill="#2955FF"/>
<path d="M351 270L363 258L363 282L351 270Z" fill="#1442F3"/>
<path d="M291 270L279 282H363L351 270H291Z" fill="#062DC2"/>
<path d="M300 330L288 318H372L360 330H300Z" fill="#4168FF"/>
<path d="M300 330L288 342L288 318L300 330Z" fill="#2955FF"/>
<path d="M360 330L372 318L372 342L360 330Z" fill="#1442F3"/>
<path d="M300 330L288 342H372L360 330H300Z" fill="#062DC2"/>
<path d="M90 150L78 138H102L90 150Z" fill="#4168FF"/>
<path d="M90 150L78 162L78 138L90 150Z" fill="#2955FF"/>
<path d="M90 150L102 138L102 162L90 150Z" fill="#1442F3"/>
<path d="M90 150L78 162H102L90 150Z" fill="#062DC2"/>
<path d="M150 210L138 198H162L150 210Z" fill="#4168FF"/>
<path d="M150 210L138 222L138 198L150 210Z" fill="#2955FF"/>
<path d="M150 210L162 198L162 222L150 210Z" fill="#1442F3"/>
<path d="M150 210L138 222H162L150 210Z" fill="#062DC2"/>
<path d="M90 210L78 198H102L90 210Z" fill="#4168FF"/>
<path d="M90 210L78 222L78 198L90 210Z" fill="#2955FF"/>
<path d="M90 210L102 198L102 222L90 210Z" fill="#1442F3"/>
<path d="M90 210L78 222H102L90 210Z" fill="#062DC2"/>
<path d="M414 90L402 78H426L414 90Z" fill="#4168FF"/>
<path d="M414 90L402 102L402 78L414 90Z" fill="#2955FF"/>
<path d="M414 90L426 78L426 102L414 90Z" fill="#1442F3"/>
<path d="M414 90L402 102H426L414 90Z" fill="#062DC2"/>
<path d="M456 90L444 78H468L456 90Z" fill="#4168FF"/>
<path d="M456 90L444 102L444 78L456 90Z" fill="#2955FF"/>
<path d="M456 90L468 78L468 102L456 90Z" fill="#1442F3"/>
<path d="M456 90L444 102H468L456 90Z" fill="#062DC2"/>
<path d="M570 195L558 183H582L570 195Z" fill="#4168FF"/>
<path d="M570 195L558 207L558 183L570 195Z" fill="#2955FF"/>
<path d="M570 195L582 183L582 207L570 195Z" fill="#1442F3"/>
<path d="M570 195L558 207H582L570 195Z" fill="#062DC2"/>
<path d="M570 279L558 267H582L570 279Z" fill="#4168FF"/>
<path d="M570 279L558 291L558 267L570 279Z" fill="#2955FF"/>
<path d="M570 279L582 267L582 291L570 279Z" fill="#1442F3"/>
<path d="M570 279L558 291H582L570 279Z" fill="#062DC2"/>
<path d="M570 363L558 351H582L570 363Z" fill="#4168FF"/>
<path d="M570 363L558 375L558 351L570 363Z" fill="#2955FF"/>
<path d="M570 363L582 351L582 375L570 363Z" fill="#1442F3"/>
<path d="M570 363L558 375H582L570 363Z" fill="#062DC2"/>
<path d="M570 237L558 225H582L570 237Z" fill="#4168FF"/>
<path d="M570 237L558 249L558 225L570 237Z" fill="#2955FF"/>
<path d="M570 237L582 225L582 249L570 237Z" fill="#1442F3"/>
<path d="M570 237L558 249H582L570 237Z" fill="#062DC2"/>
<path d="M570 321L558 309H582L570 321Z" fill="#4168FF"/>
<path d="M570 321L558 333L558 309L570 321Z" fill="#2955FF"/>
<path d="M570 321L582 309L582 333L570 321Z" fill="#1442F3"/>
<path d="M570 321L558 333H582L570 321Z" fill="#062DC2"/>
<path d="M570 405L558 393H582L570 405Z" fill="#4168FF"/>
<path d="M570 405L558 417L558 393L570 405Z" fill="#2955FF"/>
<path d="M570 405L582 393L582 417L570 405Z" fill="#1442F3"/>
<path d="M570 405L558 417H582L570 405Z" fill="#062DC2"/>
<path d="M570 447L558 435H582L570 447Z" fill="#4168FF"/>
<path d="M570 447L558 459L558 435L570 447Z" fill="#2955FF"/>
<path d="M570 447L582 435L582 459L570 447Z" fill="#1442F3"/>
<path d="M570 447L558 459H582L570 447Z" fill="#062DC2"/>
<path d="M236 90L224 78H248L236 90Z" fill="#4168FF"/>
<path d="M236 90L224 102L224 78L236 90Z" fill="#2955FF"/>
<path d="M236 90L248 78L248 102L236 90Z" fill="#1442F3"/>
<path d="M236 90L224 102H248L236 90Z" fill="#062DC2"/>
<path d="M30 510L42 498L42 558L30 546L30 510Z" fill="#1442F3"/>
<path d="M30 510L18 498L42 498L30 510Z" fill="#4168FF"/>
<path d="M30 546L42 558L18 558L30 546Z" fill="#062DC2"/>
<path d="M30 510L18 498L18 558L30 546L30 510Z" fill="#2955FF"/>
<path d="M402 330L390 318H414L402 330Z" fill="#4168FF"/>
<path d="M402 330L390 342L390 318L402 330Z" fill="#2955FF"/>
<path d="M402 330L414 318L414 342L402 330Z" fill="#1442F3"/>
<path d="M402 330L390 342H414L402 330Z" fill="#062DC2"/>
<path d="M258 330L246 318H270L258 330Z" fill="#4168FF"/>
<path d="M258 330L246 342L246 318L258 330Z" fill="#2955FF"/>
<path d="M258 330L270 318L270 342L258 330Z" fill="#1442F3"/>
<path d="M258 330L246 342H270L258 330Z" fill="#062DC2"/>
<path d="M150 450L138 438H162L150 450Z" fill="#4168FF"/>
<path d="M150 450L138 462L138 438L150 450Z" fill="#2955FF"/>
<path d="M150 450L162 438L162 462L150 450Z" fill="#1442F3"/>
<path d="M150 450L138 462H162L150 450Z" fill="#062DC2"/>
<path d="M180 450L168 438H192L180 450Z" fill="#4168FF"/>
<path d="M180 450L168 462L168 438L180 450Z" fill="#2955FF"/>
<path d="M180 450L192 438L192 462L180 450Z" fill="#1442F3"/>
<path d="M180 450L168 462H192L180 450Z" fill="#062DC2"/>
<path d="M75 570L63 558H285L273 570H75Z" fill="#4168FF"/>
<path d="M75 570L63 582L63 558L75 570Z" fill="#2955FF"/>
<path d="M273 570L285 558L285 582L273 570Z" fill="#1442F3"/>
<path d="M75 570L63 582H285L273 570H75Z" fill="#062DC2"/>
<path d="M372 510L360 498H582L570 510H372Z" fill="#4168FF"/>
<path d="M372 510L360 522L360 498L372 510Z" fill="#2955FF"/>
<path d="M570 510L582 498L582 522L570 510Z" fill="#1442F3"/>
<path d="M372 510L360 522H582L570 510H372Z" fill="#062DC2"/>
<path d="M90 330L18 258H162L90 330Z" fill="#4168FF"/>
<path d="M90 330L18 402L18 258L90 330Z" fill="#2955FF"/>
<path d="M90 330L162 258L162 402L90 330Z" fill="#1442F3"/>
<path d="M90 330L18 402H162L90 330Z" fill="#062DC2"/>
<path d="M420 240L378 198H462L420 240Z" fill="#4168FF"/>
<path d="M420 240L378 282L378 198L420 240Z" fill="#2955FF"/>
<path d="M420 240L462 198L462 282L420 240Z" fill="#1442F3"/>
<path d="M420 240L378 282H462L420 240Z" fill="#062DC2"/>
</svg>
