<svg width="30" height="30" viewBox="0 0 30 30" fill="none" xmlns="http://www.w3.org/2000/svg">
<path d="M0 4.28571C0 3.14907 0.451529 2.05898 1.25526 1.25526C2.05898 0.451529 3.14907 0 4.28571 0H25.7143C26.8509 0 27.941 0.451529 28.7447 1.25526C29.5485 2.05898 30 3.14907 30 4.28571V25.7143C30 26.8509 29.5485 27.941 28.7447 28.7447C27.941 29.5485 26.8509 30 25.7143 30H4.28571C3.14907 30 2.05898 29.5485 1.25526 28.7447C0.451529 27.941 0 26.8509 0 25.7143V4.28571ZM4.28571 2.14286C3.71739 2.14286 3.17235 2.36862 2.77049 2.77049C2.36862 3.17235 2.14286 3.71739 2.14286 4.28571V25.7143C2.14286 26.2826 2.36862 26.8276 2.77049 27.2295C3.17235 27.6314 3.71739 27.8571 4.28571 27.8571H25.7143C26.2826 27.8571 26.8276 27.6314 27.2295 27.2295C27.6314 26.8276 27.8571 26.2826 27.8571 25.7143V4.28571C27.8571 3.71739 27.6314 3.17235 27.2295 2.77049C26.8276 2.36862 26.2826 2.14286 25.7143 2.14286H4.28571ZM15 6.42857C15.2842 6.42857 15.5567 6.54145 15.7576 6.74239C15.9585 6.94332 16.0714 7.21584 16.0714 7.5V13.9286H22.5C22.7842 13.9286 23.0567 14.0415 23.2576 14.2424C23.4585 14.4433 23.5714 14.7158 23.5714 15C23.5714 15.2842 23.4585 15.5567 23.2576 15.7576C23.0567 15.9585 22.7842 16.0714 22.5 16.0714H16.0714V22.5C16.0714 22.7842 15.9585 23.0567 15.7576 23.2576C15.5567 23.4585 15.2842 23.5714 15 23.5714C14.7158 23.5714 14.4433 23.4585 14.2424 23.2576C14.0415 23.0567 13.9286 22.7842 13.9286 22.5V16.0714H7.5C7.21584 16.0714 6.94332 15.9585 6.74239 15.7576C6.54145 15.5567 6.42857 15.2842 6.42857 15C6.42857 14.7158 6.54145 14.4433 6.74239 14.2424C6.94332 14.0415 7.21584 13.9286 7.5 13.9286H13.9286V7.5C13.9286 7.21584 14.0415 6.94332 14.2424 6.74239C14.4433 6.54145 14.7158 6.42857 15 6.42857Z" fill="#14141E" fill-opacity="1"/>
</svg>
