<svg width="65" height="15" viewBox="0 0 65 15" fill="none" xmlns="http://www.w3.org/2000/svg">
<path d="M1.05279 12.6055C0.55881 12.8525 0.358584 13.4532 0.605572 13.9472C0.85256 14.4411 1.45323 14.6414 1.94721 14.3944L1.05279 12.6055ZM64.0658 9.32453C64.5212 9.01203 64.637 8.38955 64.3245 7.93418L59.232 0.513545C58.9194 0.0581778 58.297 -0.0576348 57.8416 0.25487C57.3862 0.567375 57.2704 1.18986 57.5829 1.64523L62.1096 8.24134L55.5135 12.7681C55.0582 13.0806 54.9423 13.7031 55.2549 14.1584C55.5674 14.6138 56.1898 14.7296 56.6452 14.4171L64.0658 9.32453ZM1.94721 14.3944C17.673 6.53152 41.9234 5.50287 63.3171 9.48315L63.6829 7.51689C42.0766 3.49705 17.327 4.46848 1.05279 12.6055L1.94721 14.3944Z" fill="black" fill-opacity="0.4"/>
</svg>
