<svg width="19" height="19" viewBox="0 0 19 19" fill="none" xmlns="http://www.w3.org/2000/svg">
<path fill-rule="evenodd" clip-rule="evenodd" d="M18.7076 1.70935C19.0982 1.31888 19.0983 0.685714 18.7078 0.295133C18.3174 -0.0954486 17.6842 -0.095541 17.2936 0.294926L9.50032 8.08597L1.707 0.294926C1.31642 -0.095541 0.683257 -0.0954486 0.29279 0.295133C-0.0976772 0.685714 -0.0975849 1.31888 0.292996 1.70935L8.0859 9.49998L0.292996 17.2906C-0.0975849 17.6811 -0.0976772 18.3142 0.29279 18.7048C0.683257 19.0954 1.31642 19.0955 1.707 18.705L9.50032 10.914L17.2936 18.705C17.6842 19.0955 18.3174 19.0954 18.7078 18.7048C19.0983 18.3142 19.0982 17.6811 18.7076 17.2906L10.9147 9.49998L18.7076 1.70935Z" fill="#14141E" fill-opacity="0.2"/>
</svg>
