<svg width="164" height="32" viewBox="0 0 164 32" fill="none" xmlns="http://www.w3.org/2000/svg">
<path d="M0 31.713V0.618103H8.39491C14.5617 0.618103 17.6452 3.30832 17.6452 8.68875C17.6452 12.6004 15.4306 15.0724 11.0014 16.1047C12.6039 16.6763 13.7591 17.5323 14.4671 18.6727C15.3346 20.2211 16.0683 22.7073 16.6683 26.1312L17.1567 28.3729C17.4823 30.1118 17.7134 31.2252 17.8499 31.713H13.8551C13.5849 30.2186 13.191 27.8418 12.6735 24.5828C11.8628 19.936 9.94743 17.5586 6.92753 17.4505H3.62589V31.713H0ZM3.62589 14.1489H7.00863C11.627 14.1489 13.9362 12.3288 13.9362 8.68875C13.9362 5.5094 11.8986 3.91973 7.8234 3.91973H3.62589V14.1489Z" fill="#1646FF"/>
<path d="M29.8362 0.0501709C35.7584 0.0501709 38.7196 5.3752 38.7196 16.0253C38.7196 26.6753 35.7037 32.0004 29.672 32.0004C23.6403 32.0004 20.6245 26.7159 20.6245 16.1469C20.6245 5.41574 23.695 0.0501709 29.8362 0.0501709ZM29.5909 3.51394C26.0873 3.51394 24.3348 7.6979 24.3335 16.0658C24.3335 24.3797 26.113 28.5366 29.672 28.5366C33.231 28.5366 35.0105 24.4202 35.0105 16.1874C35.0105 7.73843 33.204 3.51394 29.5909 3.51394Z" fill="#1646FF"/>
<path d="M41.7359 31.429V0.621948H48.627C52.4292 0.621948 54.9965 1.24687 56.3287 2.49672C57.1249 3.1988 57.7594 4.0652 58.1884 5.03619C58.6174 6.00717 58.8307 7.05965 58.8136 8.12104C58.8136 11.7084 57.1016 14.1264 53.6777 15.3749C57.6178 16.4612 59.5878 19.0548 59.5878 23.1557C59.5878 25.573 58.7589 27.5998 57.1009 29.236C55.5795 30.7034 53.2298 31.4371 50.0518 31.4371L41.7359 31.429ZM45.3618 13.7818H48.7445C53.0373 13.7818 55.1836 11.9888 55.1836 8.40277C55.1836 6.68946 54.6431 5.48014 53.5622 4.77482C52.7191 4.23435 51.2246 3.96411 49.0789 3.96411H45.37L45.3618 13.7818ZM45.3618 28.0869H49.3971C53.7709 28.0869 55.9579 26.3209 55.9579 22.7889C55.9579 19.0123 53.6351 17.1206 48.9898 17.1139H45.3618V28.0869Z" fill="#1646FF"/>
<path d="M71.5682 0.0501709C77.4905 0.0501709 80.4515 5.3752 80.4515 16.0253C80.4515 26.6753 77.4357 32.0004 71.404 32.0004C65.375 32.0004 62.3598 26.7159 62.3585 16.1469C62.3585 5.41574 65.4284 0.0501709 71.5682 0.0501709ZM71.3229 3.51394C67.8193 3.51394 66.0675 7.6979 66.0675 16.0658C66.0675 24.3797 67.8463 28.5366 71.404 28.5366C74.9617 28.5366 76.7419 24.4202 76.7446 16.1874C76.7446 7.73843 74.9373 3.51394 71.3229 3.51394Z" fill="#1646FF"/>
<path d="M100.788 9.05363H96.9169C96.5115 5.33246 95.1665 3.47188 92.8816 3.47188C88.9145 3.47188 86.9316 7.79163 86.933 16.4311C86.933 24.4991 88.8348 28.5337 92.6384 28.5351C95.1097 28.5351 96.7257 26.4569 97.4864 22.3007H101.36C100.245 28.7661 97.4466 31.9988 92.9647 31.9988C86.4695 31.9988 83.2226 26.7292 83.224 16.1899C83.224 11.4081 84.0117 7.52274 85.5872 4.53391C87.1627 1.5113 89.6077 0 92.9221 0C97.5148 0 100.137 3.01787 100.788 9.05363Z" fill="#1646FF"/>
<path d="M113.296 0.0501709C119.22 0.0501709 122.182 5.3752 122.182 16.0253C122.182 26.6753 119.166 32.0004 113.134 32.0004C107.102 32.0004 104.087 26.7159 104.087 16.1469C104.088 5.41574 107.158 0.0501709 113.296 0.0501709ZM113.053 3.51394C109.547 3.51394 107.794 7.6979 107.796 16.0658C107.796 24.3797 109.575 28.5366 113.134 28.5366C116.693 28.5366 118.473 24.4202 118.473 16.1874C118.474 7.73843 116.668 3.51394 113.055 3.51394H113.053Z" fill="#1646FF"/>
<path d="M125.199 31.429V0.621948H131.279C139.131 0.621948 143.057 5.75646 143.057 16.0255C143.057 21.0789 141.984 25.0595 139.839 27.9673C138.152 30.2765 135.489 31.4311 131.849 31.4311L125.199 31.429ZM128.825 27.9693H131.598C134.314 27.9693 136.283 27.0181 137.506 25.1156C138.729 23.2131 139.34 20.1432 139.34 15.9059C139.34 8.02578 136.731 4.08572 131.515 4.08572H128.825V27.9693Z" fill="#1646FF"/>
<path d="M146.066 31.429V0.621948H163.915V4.08572H149.694V13.944H161.633V17.4098H149.694V27.9693H163.915V31.4331L146.066 31.429Z" fill="#1646FF"/>
</svg>
